<svg xmlns="http://www.w3.org/2000/svg" viewBox="0 0 200 240" width="200" height="240">
  <defs>
    <linearGradient id="csm7" x1="0%" y1="0%" x2="0%" y2="100%">
      <stop offset="0%" stop-color="#ff7df0"/>
      <stop offset="50%" stop-color="#ff00aa"/>
      <stop offset="100%" stop-color="#8a0066"/>
    </linearGradient>
    <filter id="csmShadow7" x="-20%" y="-20%" width="140%" height="140%">
      <feDropShadow dx="0" dy="0" stdDeviation="8" flood-color="#ff00aa" flood-opacity="0.7"/>
      <feDropShadow dx="0" dy="0" stdDeviation="14" flood-color="#ff00aa" flood-opacity="0.4"/>
    </filter>
  </defs>
  <g filter="url(#csmShadow7)">
    <g fill="#ffffff">
      <polygon points="30,50 33,58 41,58 35,64 37,72 30,67 23,72 25,64 19,58 27,58" opacity="0.9"/>
      <polygon points="168,180 170,186 176,186 171,190 173,196 168,193 163,196 165,190 160,186 166,186" opacity="0.85"/>
      <circle cx="22" cy="200" r="2.2" opacity="0.85"/>
      <circle cx="178" cy="40" r="2.5" opacity="0.9"/>
      <circle cx="40" cy="32" r="1.6" opacity="0.8"/>
    </g>
    <text x="100" y="195"
          font-family="Bungee, 'Arial Black', sans-serif"
          font-size="200"
          font-weight="900"
          text-anchor="middle"
          fill="url(#csm7)"
          stroke="#ffffff"
          stroke-width="4"
          paint-order="stroke">7</text>
  </g>
</svg>
